<svg width="25" height="20" viewBox="0 0 25 20" fill="none" xmlns="http://www.w3.org/2000/svg">
<path d="M8.33593 18.6667C7.42898 18.6667 6.56204 18.4934 5.73511 18.1467C4.94375 17.8089 4.23909 17.3311 3.62112 16.7134C3.00315 16.0956 2.52522 15.3911 2.18734 14.6C1.84056 13.7734 1.66718 12.9067 1.66718 12C1.66718 11.0934 1.84056 10.2267 2.18734 9.40002C2.52522 8.60891 3.00315 7.90447 3.62112 7.28669C4.23909 6.66891 4.94375 6.19113 5.73511 5.85335C6.56204 5.50669 7.42898 5.33335 8.33593 5.33335C9.24288 5.33335 10.1098 5.50669 10.9367 5.85335C11.7281 6.19113 12.4328 6.66891 13.0507 7.28669C13.6687 7.90447 14.1466 8.60891 14.4845 9.40002C14.8313 10.2267 15.0047 11.0934 15.0047 12C15.0047 12.9067 14.8313 13.7734 14.4845 14.6C14.1466 15.3911 13.6687 16.0956 13.0507 16.7134C12.4328 17.3311 11.7281 17.8089 10.9367 18.1467C10.1098 18.4934 9.24288 18.6667 8.33593 18.6667ZM8.33593 17.3334C9.30512 17.3334 10.2032 17.0889 11.0301 16.6C11.8303 16.1289 12.4661 15.4934 12.9374 14.6934C13.4264 13.8667 13.6709 12.9689 13.6709 12C13.6709 11.0311 13.4264 10.1334 12.9374 9.30669C12.4661 8.50669 11.8303 7.87113 11.0301 7.40002C10.2032 6.91113 9.30512 6.66669 8.33593 6.66669C7.36673 6.66669 6.46868 6.91113 5.64175 7.40002C4.8415 7.87113 4.20575 8.50669 3.73449 9.30669C3.24545 10.1334 3.00093 11.0311 3.00093 12C3.00093 12.9689 3.24545 13.8667 3.73449 14.6934C4.20575 15.4934 4.8415 16.1289 5.64175 16.6C6.46868 17.0889 7.36673 17.3334 8.33593 17.3334ZM7.41564 9.61335L10.67 11.7734C10.7322 11.8178 10.77 11.8756 10.7834 11.9467C10.7967 12.0178 10.7856 12.0845 10.75 12.1467C10.7233 12.1734 10.6967 12.2 10.67 12.2267L7.41564 14.3867C7.3534 14.4311 7.28671 14.4467 7.21558 14.4334C7.14444 14.42 7.08665 14.3822 7.04219 14.32C7.01551 14.2756 7.00217 14.2267 7.00217 14.1734V9.82669C7.00217 9.75558 7.02885 9.69335 7.0822 9.64002C7.13555 9.58669 7.19779 9.56002 7.26893 9.56002C7.32228 9.56002 7.37118 9.5778 7.41564 9.61335Z" fill="white"/>
</svg>
